M48
INCH,TZ
T01C.016
;LEADER: 12 
;HEADER: 
;CODE  : ASCII 
;FILE  : DRILL-1-2.drl for board C:/Projects/Proiect 1 DCE/P1_2018_432A_Traistaru_Vlad-Viorel_Amplificator_audio_putere_N8_OrCAD/Layout/#Taaaaci15152.tmp ... layers TOP and BOTTOM
;T01 Holesize 1. = 16.000000 Tolerance = +0.000000/-0.000000 PLATED MILS Quantity = 42
%
G90
T01
X11000Y49000
X14000Y54000
X29000Y106000
X44000Y148000
X33000
X51000Y138000
X59000Y135000
X40000Y120000
X35000Y109000
Y102533
X51000Y100000
X40000Y63000
X35000Y62150
X32000Y54350
X47292Y44000
X62000Y36000
X69078Y40000
X67000Y63000
X75000Y73000
X66000Y84000
X84000
X83000Y97000
X86376Y116624
X82000Y123000
X76000Y135000
X67000Y141000
Y152000
X108000Y144000
X94642Y137394
X101000Y133000
Y127000
X102600Y112219
X94900Y111900
X115000Y98000
Y81000
X97000Y77000
X95000Y53000
X104000Y52000
X145000Y92000
X139000Y106000
X145000Y146000
X150000Y153000
M30
