G04 ================== begin FILE IDENTIFICATION RECORD ==================*
G04 Layout Name:  AMPLFICATOR AUDIO PUTERE.brd*
G04 Film Name:    FAB*
G04 File Format:  Gerber RS274X*
G04 File Origin:  Cadence Allegro 17.2-S012*
G04 Origin Date:  Wed Nov 14 14:45:57 2018*
G04 *
G04 Layer:  MANUFACTURING/XSECTION_CHART*
G04 Layer:  MANUFACTURING/NCLEGEND-1-2*
G04 Layer:  MANUFACTURING/NCDRILL_FIGURE*
G04 Layer:  BOARD GEOMETRY/OUTLINE*
G04 Layer:  BOARD GEOMETRY/DIMENSION*
G04 *
G04 Offset:    (0.00 0.00)*
G04 Mirror:    No*
G04 Mode:      Positive*
G04 Rotation:  0*
G04 FullContactRelief:  No*
G04 UndefLineWidth:     10.00*
G04 ================== end FILE IDENTIFICATION RECORD ====================*
%FSLAX25Y25*MOIN*%
%IR0*IPPOS*OFA0.00000B0.00000*MIA0B0*SFA1.00000B1.00000*%
%AMMACRO10*
1,1,.01,.025,0.0*
20,1,.01,.025,0.0,.02462,-.004341,0.0*
1,1,.01,.02462,-.004341*
20,1,.01,.02462,-.004341,.023492,-.008551,0.0*
1,1,.01,.023492,-.008551*
20,1,.01,.023492,-.008551,.021651,-.0125,0.0*
1,1,.01,.021651,-.0125*
20,1,.01,.021651,-.0125,.019151,-.01607,0.0*
1,1,.01,.019151,-.01607*
20,1,.01,.019151,-.01607,.01607,-.019151,0.0*
1,1,.01,.01607,-.019151*
20,1,.01,.01607,-.019151,.0125,-.021651,0.0*
1,1,.01,.0125,-.021651*
20,1,.01,.0125,-.021651,.008551,-.023492,0.0*
1,1,.01,.008551,-.023492*
20,1,.01,.008551,-.023492,.004341,-.02462,0.0*
1,1,.01,.004341,-.02462*
20,1,.01,.004341,-.02462,0.0,-.025,0.0*
1,1,.01,0.0,-.025*
20,1,.01,0.0,-.025,-.004341,-.02462,0.0*
1,1,.01,-.004341,-.02462*
20,1,.01,-.004341,-.02462,-.008551,-.023492,0.0*
1,1,.01,-.008551,-.023492*
20,1,.01,-.008551,-.023492,-.0125,-.021651,0.0*
1,1,.01,-.0125,-.021651*
20,1,.01,-.0125,-.021651,-.01607,-.019151,0.0*
1,1,.01,-.01607,-.019151*
20,1,.01,-.01607,-.019151,-.019151,-.01607,0.0*
1,1,.01,-.019151,-.01607*
20,1,.01,-.019151,-.01607,-.021651,-.0125,0.0*
1,1,.01,-.021651,-.0125*
20,1,.01,-.021651,-.0125,-.023492,-.008551,0.0*
1,1,.01,-.023492,-.008551*
20,1,.01,-.023492,-.008551,-.02462,-.004341,0.0*
1,1,.01,-.02462,-.004341*
20,1,.01,-.02462,-.004341,-.025,0.0,0.0*
1,1,.01,-.025,0.0*
20,1,.01,-.025,0.0,-.02462,.004341,0.0*
1,1,.01,-.02462,.004341*
20,1,.01,-.02462,.004341,-.023492,.008551,0.0*
1,1,.01,-.023492,.008551*
20,1,.01,-.023492,.008551,-.021651,.0125,0.0*
1,1,.01,-.021651,.0125*
20,1,.01,-.021651,.0125,-.019151,.01607,0.0*
1,1,.01,-.019151,.01607*
20,1,.01,-.019151,.01607,-.01607,.019151,0.0*
1,1,.01,-.01607,.019151*
20,1,.01,-.01607,.019151,-.0125,.021651,0.0*
1,1,.01,-.0125,.021651*
20,1,.01,-.0125,.021651,-.008551,.023492,0.0*
1,1,.01,-.008551,.023492*
20,1,.01,-.008551,.023492,-.004341,.02462,0.0*
1,1,.01,-.004341,.02462*
20,1,.01,-.004341,.02462,0.0,.025,0.0*
1,1,.01,0.0,.025*
20,1,.01,0.0,.025,.004341,.02462,0.0*
1,1,.01,.004341,.02462*
20,1,.01,.004341,.02462,.008551,.023492,0.0*
1,1,.01,.008551,.023492*
20,1,.01,.008551,.023492,.0125,.021651,0.0*
1,1,.01,.0125,.021651*
20,1,.01,.0125,.021651,.01607,.019151,0.0*
1,1,.01,.01607,.019151*
20,1,.01,.01607,.019151,.019151,.01607,0.0*
1,1,.01,.019151,.01607*
20,1,.01,.019151,.01607,.021651,.0125,0.0*
1,1,.01,.021651,.0125*
20,1,.01,.021651,.0125,.023492,.008551,0.0*
1,1,.01,.023492,.008551*
20,1,.01,.023492,.008551,.02462,.004341,0.0*
1,1,.01,.02462,.004341*
20,1,.01,.02462,.004341,.025,0.0,0.0*
1,1,.01,.025,0.0*
1,1,.01,.0125,0.0*
20,1,.01,.0125,0.0,-.0125,0.0,0.0*
1,1,.01,-.0125,0.0*
1,1,.01,0.0,.0125*
20,1,.01,0.0,.0125,0.0,-.0125,0.0*
1,1,.01,0.0,-.0125*
%
%ADD10MACRO10*%
%ADD11C,.01*%
%ADD12C,.006*%
G75*
%LPD*%
G75*
G36*
G01X255150Y269460D02*
Y266940D01*
X257650D01*
Y70200D01*
X255150D01*
Y67680D01*
X270150D01*
Y70200D01*
X267650D01*
Y266940D01*
X270150D01*
Y269460D01*
X255150D01*
G37*
G36*
G01X235150Y67680D02*
Y70200D01*
X295150D01*
Y67680D01*
X235150D01*
G37*
G36*
G01Y266940D02*
Y269460D01*
X295150D01*
Y266940D01*
X235150D01*
G37*
G54D10*
X11000Y49000D03*
X32000Y54350D03*
X14000Y54000D03*
X35000Y62150D03*
X40000Y63000D03*
X35000Y102533D03*
X40000Y120000D03*
X35000Y109000D03*
X29000Y106000D03*
X33000Y148000D03*
X62000Y36000D03*
X69078Y40000D03*
X47292Y44000D03*
X67000Y63000D03*
X66000Y84000D03*
X51000Y100000D03*
X67000Y141000D03*
Y152000D03*
X51000Y138000D03*
X59000Y135000D03*
X44000Y148000D03*
X95000Y53000D03*
X75000Y73000D03*
X97000Y77000D03*
X84000Y84000D03*
X94900Y111900D03*
X83000Y97000D03*
X86376Y116624D03*
X76000Y135000D03*
X82000Y123000D03*
X101000Y133000D03*
Y127000D03*
X94642Y137394D03*
X104000Y52000D03*
X115000Y81000D03*
X102600Y112219D03*
X115000Y98000D03*
X108000Y144000D03*
X145000Y92000D03*
X139000Y106000D03*
X145000Y146000D03*
X150000Y153000D03*
X468450Y187500D03*
G54D11*
G01X0Y0D02*
Y160000D01*
X160000D01*
Y0D01*
X0D01*
G01Y170000D02*
Y175000D01*
G01X74525Y165000D02*
X0D01*
G01X15000Y167500D02*
X0Y165000D01*
X15000Y162500D01*
Y167500D01*
G01X99475Y165000D02*
X160000D01*
G01X145000Y162500D02*
X160000Y165000D01*
X145000Y167500D01*
Y162500D01*
G01X170000Y0D02*
X183000D01*
G01X173000Y48825D02*
Y0D01*
G01X170500Y15000D02*
X173000Y0D01*
X175500Y15000D01*
X170500D01*
G01X173000Y59175D02*
Y160000D01*
G01X175500Y145000D02*
X173000Y160000D01*
X170500Y145000D01*
X175500D01*
G01X160000Y170000D02*
Y175000D01*
G01X170000Y160000D02*
X183000D01*
G01X235150Y70200D02*
Y266940D01*
X295150D01*
Y70200D01*
X235150D01*
G01X448000Y183600D02*
Y232000D01*
X671000D01*
Y183600D01*
X448000D01*
G01Y207000D02*
X671000D01*
G01X448000Y199200D02*
X671000D01*
G01X448000Y191400D02*
X671000D01*
G01X488900Y199200D02*
Y183600D01*
G01X578400Y199200D02*
Y183600D01*
G01X635500Y199200D02*
Y183600D01*
G54D12*
G01X78900Y163050D02*
Y166950D01*
X78440Y166170D01*
G01Y163050D02*
X79360D01*
G01X84300Y162920D02*
X84223Y162985D01*
Y163115D01*
X84300Y163180D01*
X84377Y163115D01*
Y162985D01*
X84300Y162920D01*
G01X88972Y164675D02*
X89240Y165130D01*
X89470Y165390D01*
X89777Y165520D01*
X90045Y165390D01*
X90237Y165130D01*
X90390Y164740D01*
X90428Y164285D01*
X90390Y163895D01*
X90237Y163505D01*
X90007Y163180D01*
X89738Y163050D01*
X89432Y163180D01*
X89163Y163570D01*
X89010Y164155D01*
X88972Y164805D01*
X89048Y165650D01*
X89163Y166105D01*
X89355Y166560D01*
X89623Y166885D01*
X89892Y166950D01*
X90160Y166820D01*
X90352Y166495D01*
G01X95100Y166950D02*
X94793Y166820D01*
X94563Y166495D01*
X94410Y166105D01*
X94295Y165585D01*
X94257Y165000D01*
X94295Y164415D01*
X94410Y163895D01*
X94563Y163505D01*
X94793Y163180D01*
X95100Y163050D01*
X95407Y163180D01*
X95637Y163505D01*
X95790Y163895D01*
X95905Y164415D01*
X95943Y165000D01*
X95905Y165585D01*
X95790Y166105D01*
X95637Y166495D01*
X95407Y166820D01*
X95100Y166950D01*
G01X164900Y52050D02*
Y55950D01*
X164440Y55170D01*
G01Y52050D02*
X165360D01*
G01X170300Y51920D02*
X170223Y51985D01*
Y52115D01*
X170300Y52180D01*
X170377Y52115D01*
Y51985D01*
X170300Y51920D01*
G01X174972Y53675D02*
X175240Y54130D01*
X175470Y54390D01*
X175777Y54520D01*
X176045Y54390D01*
X176237Y54130D01*
X176390Y53740D01*
X176428Y53285D01*
X176390Y52895D01*
X176237Y52505D01*
X176007Y52180D01*
X175738Y52050D01*
X175432Y52180D01*
X175163Y52570D01*
X175010Y53155D01*
X174972Y53805D01*
X175048Y54650D01*
X175163Y55105D01*
X175355Y55560D01*
X175623Y55885D01*
X175892Y55950D01*
X176160Y55820D01*
X176352Y55495D01*
G01X181100Y55950D02*
X180793Y55820D01*
X180563Y55495D01*
X180410Y55105D01*
X180295Y54585D01*
X180257Y54000D01*
X180295Y53415D01*
X180410Y52895D01*
X180563Y52505D01*
X180793Y52180D01*
X181100Y52050D01*
X181407Y52180D01*
X181637Y52505D01*
X181790Y52895D01*
X181905Y53415D01*
X181943Y54000D01*
X181905Y54585D01*
X181790Y55105D01*
X181637Y55495D01*
X181407Y55820D01*
X181100Y55950D01*
G01X228057Y50400D02*
Y54300D01*
X228823D01*
X229130Y54105D01*
X229360Y53845D01*
X229552Y53455D01*
X229705Y53000D01*
X229743Y52350D01*
X229705Y51700D01*
X229552Y51245D01*
X229360Y50855D01*
X229130Y50595D01*
X228823Y50400D01*
X228057D01*
G01X232567D02*
X231033D01*
Y54300D01*
X232567D01*
G01X231953Y52415D02*
X231033D01*
G01X233895Y50920D02*
X234202Y50595D01*
X234547Y50400D01*
X234853D01*
X235160Y50595D01*
X235390Y50920D01*
X235505Y51375D01*
X235428Y51830D01*
X235237Y52220D01*
X234892Y52480D01*
X234432Y52610D01*
X234163Y52870D01*
X234048Y53325D01*
X234125Y53780D01*
X234317Y54105D01*
X234585Y54300D01*
X234853D01*
X235122Y54170D01*
X235352Y53845D01*
G01X237140Y54300D02*
X238060D01*
G01X237600D02*
Y50400D01*
G01X237140D02*
X238060D01*
G01X240730Y52350D02*
X241497D01*
Y51180D01*
X241267Y50790D01*
X240998Y50530D01*
X240615Y50400D01*
X240232Y50530D01*
X239963Y50790D01*
X239733Y51180D01*
X239580Y51635D01*
X239503Y52155D01*
Y52610D01*
X239580Y53000D01*
X239733Y53455D01*
X239963Y53845D01*
X240193Y54105D01*
X240500Y54300D01*
X240768D01*
X241075Y54170D01*
X241305Y53910D01*
G01X242518Y50400D02*
Y54300D01*
X244282Y50400D01*
Y54300D01*
G01X250043Y53975D02*
X249813Y54170D01*
X249545Y54300D01*
X249238D01*
X248893Y54105D01*
X248625Y53780D01*
X248433Y53390D01*
X248280Y52740D01*
X248242Y52155D01*
X248318Y51570D01*
X248433Y51180D01*
X248663Y50790D01*
X248932Y50530D01*
X249200Y50400D01*
X249468D01*
X249737Y50530D01*
X249967Y50725D01*
X250158Y50985D01*
G01X251333Y50400D02*
Y54300D01*
X252292D01*
X252598Y54105D01*
X252790Y53845D01*
X252867Y53325D01*
X252790Y52805D01*
X252560Y52480D01*
X252292Y52285D01*
X251333D01*
G01X252292D02*
X252867Y50400D01*
G01X255000D02*
X254693Y50465D01*
X254425Y50725D01*
X254195Y51115D01*
X254042Y51570D01*
X253965Y52090D01*
Y52610D01*
X254042Y53130D01*
X254195Y53585D01*
X254425Y53975D01*
X254693Y54235D01*
X255000Y54300D01*
X255307Y54235D01*
X255575Y53975D01*
X255805Y53585D01*
X255958Y53130D01*
X256035Y52610D01*
Y52090D01*
X255958Y51570D01*
X255805Y51115D01*
X255575Y50725D01*
X255307Y50465D01*
X255000Y50400D01*
G01X257095Y50920D02*
X257402Y50595D01*
X257747Y50400D01*
X258053D01*
X258360Y50595D01*
X258590Y50920D01*
X258705Y51375D01*
X258628Y51830D01*
X258437Y52220D01*
X258092Y52480D01*
X257632Y52610D01*
X257363Y52870D01*
X257248Y53325D01*
X257325Y53780D01*
X257517Y54105D01*
X257785Y54300D01*
X258053D01*
X258322Y54170D01*
X258552Y53845D01*
G01X259995Y50920D02*
X260302Y50595D01*
X260647Y50400D01*
X260953D01*
X261260Y50595D01*
X261490Y50920D01*
X261605Y51375D01*
X261528Y51830D01*
X261337Y52220D01*
X260992Y52480D01*
X260532Y52610D01*
X260263Y52870D01*
X260148Y53325D01*
X260225Y53780D01*
X260417Y54105D01*
X260685Y54300D01*
X260953D01*
X261222Y54170D01*
X261452Y53845D01*
G01X265795Y50920D02*
X266102Y50595D01*
X266447Y50400D01*
X266753D01*
X267060Y50595D01*
X267290Y50920D01*
X267405Y51375D01*
X267328Y51830D01*
X267137Y52220D01*
X266792Y52480D01*
X266332Y52610D01*
X266063Y52870D01*
X265948Y53325D01*
X266025Y53780D01*
X266217Y54105D01*
X266485Y54300D01*
X266753D01*
X267022Y54170D01*
X267252Y53845D01*
G01X270267Y50400D02*
X268733D01*
Y54300D01*
X270267D01*
G01X269653Y52415D02*
X268733D01*
G01X273243Y53975D02*
X273013Y54170D01*
X272745Y54300D01*
X272438D01*
X272093Y54105D01*
X271825Y53780D01*
X271633Y53390D01*
X271480Y52740D01*
X271442Y52155D01*
X271518Y51570D01*
X271633Y51180D01*
X271863Y50790D01*
X272132Y50530D01*
X272400Y50400D01*
X272668D01*
X272937Y50530D01*
X273167Y50725D01*
X273358Y50985D01*
G01X275300Y54300D02*
Y50400D01*
G01X274418Y54300D02*
X276182D01*
G01X277740D02*
X278660D01*
G01X278200D02*
Y50400D01*
G01X277740D02*
X278660D01*
G01X281100D02*
X280793Y50465D01*
X280525Y50725D01*
X280295Y51115D01*
X280142Y51570D01*
X280065Y52090D01*
Y52610D01*
X280142Y53130D01*
X280295Y53585D01*
X280525Y53975D01*
X280793Y54235D01*
X281100Y54300D01*
X281407Y54235D01*
X281675Y53975D01*
X281905Y53585D01*
X282058Y53130D01*
X282135Y52610D01*
Y52090D01*
X282058Y51570D01*
X281905Y51115D01*
X281675Y50725D01*
X281407Y50465D01*
X281100Y50400D01*
G01X283118D02*
Y54300D01*
X284882Y50400D01*
Y54300D01*
G01X290643Y53975D02*
X290413Y54170D01*
X290145Y54300D01*
X289838D01*
X289493Y54105D01*
X289225Y53780D01*
X289033Y53390D01*
X288880Y52740D01*
X288842Y52155D01*
X288918Y51570D01*
X289033Y51180D01*
X289263Y50790D01*
X289532Y50530D01*
X289800Y50400D01*
X290068D01*
X290337Y50530D01*
X290567Y50725D01*
X290758Y50985D01*
G01X291895Y50400D02*
Y54300D01*
G01X293505D02*
Y50400D01*
G01Y52350D02*
X291895D01*
G01X294642Y50400D02*
X295600Y54300D01*
X296558Y50400D01*
G01X296213Y51765D02*
X294987D01*
G01X297733Y50400D02*
Y54300D01*
X298692D01*
X298998Y54105D01*
X299190Y53845D01*
X299267Y53325D01*
X299190Y52805D01*
X298960Y52480D01*
X298692Y52285D01*
X297733D01*
G01X298692D02*
X299267Y50400D01*
G01X301400Y54300D02*
Y50400D01*
G01X300518Y54300D02*
X302282D01*
G01X226300Y49100D02*
X228600D01*
G01X229200D02*
X231500D01*
G01X232100D02*
X234400D01*
G01X235000D02*
X237300D01*
G01X237900D02*
X240200D01*
G01X240800D02*
X243100D01*
G01X243700D02*
X246000D01*
G01X246600D02*
X248900D01*
G01X249500D02*
X251800D01*
G01X252400D02*
X254700D01*
G01X255300D02*
X257600D01*
G01X258200D02*
X260500D01*
G01X261100D02*
X263400D01*
G01X264000D02*
X266300D01*
G01X266900D02*
X269200D01*
G01X269800D02*
X272100D01*
G01X272700D02*
X275000D01*
G01X275600D02*
X277900D01*
G01X278500D02*
X280800D01*
G01X281400D02*
X283700D01*
G01X284300D02*
X286600D01*
G01X287200D02*
X289500D01*
G01X290100D02*
X292400D01*
G01X293000D02*
X295300D01*
G01X295900D02*
X298200D01*
G01X298800D02*
X301100D01*
G01X301700D02*
X304000D01*
G01X230350Y46500D02*
Y42600D01*
G01X229468Y46500D02*
X231232D01*
G01X233250Y42600D02*
X232943Y42665D01*
X232675Y42925D01*
X232445Y43315D01*
X232292Y43770D01*
X232215Y44290D01*
Y44810D01*
X232292Y45330D01*
X232445Y45785D01*
X232675Y46175D01*
X232943Y46435D01*
X233250Y46500D01*
X233557Y46435D01*
X233825Y46175D01*
X234055Y45785D01*
X234208Y45330D01*
X234285Y44810D01*
Y44290D01*
X234208Y43770D01*
X234055Y43315D01*
X233825Y42925D01*
X233557Y42665D01*
X233250Y42600D01*
G01X236150Y46500D02*
Y42600D01*
G01X235268Y46500D02*
X237032D01*
G01X238092Y42600D02*
X239050Y46500D01*
X240008Y42600D01*
G01X239663Y43965D02*
X238437D01*
G01X241183Y46500D02*
Y42600D01*
X242717D01*
G01X247750Y46500D02*
Y42600D01*
G01X246868Y46500D02*
X248632D01*
G01X249845Y42600D02*
Y46500D01*
G01X251455D02*
Y42600D01*
G01Y44550D02*
X249845D01*
G01X253090Y46500D02*
X254010D01*
G01X253550D02*
Y42600D01*
G01X253090D02*
X254010D01*
G01X257293Y46175D02*
X257063Y46370D01*
X256795Y46500D01*
X256488D01*
X256143Y46305D01*
X255875Y45980D01*
X255683Y45590D01*
X255530Y44940D01*
X255492Y44355D01*
X255568Y43770D01*
X255683Y43380D01*
X255913Y42990D01*
X256182Y42730D01*
X256450Y42600D01*
X256718D01*
X256987Y42730D01*
X257217Y42925D01*
X257408Y43185D01*
G01X258507Y42600D02*
Y46500D01*
G01X259963D02*
X258507Y44095D01*
G01X260193Y42600D02*
X259158Y45200D01*
G01X261368Y42600D02*
Y46500D01*
X263132Y42600D01*
Y46500D01*
G01X265917Y42600D02*
X264383D01*
Y46500D01*
X265917D01*
G01X265303Y44615D02*
X264383D01*
G01X267245Y43120D02*
X267552Y42795D01*
X267897Y42600D01*
X268203D01*
X268510Y42795D01*
X268740Y43120D01*
X268855Y43575D01*
X268778Y44030D01*
X268587Y44420D01*
X268242Y44680D01*
X267782Y44810D01*
X267513Y45070D01*
X267398Y45525D01*
X267475Y45980D01*
X267667Y46305D01*
X267935Y46500D01*
X268203D01*
X268472Y46370D01*
X268702Y46045D01*
G01X270145Y43120D02*
X270452Y42795D01*
X270797Y42600D01*
X271103D01*
X271410Y42795D01*
X271640Y43120D01*
X271755Y43575D01*
X271678Y44030D01*
X271487Y44420D01*
X271142Y44680D01*
X270682Y44810D01*
X270413Y45070D01*
X270298Y45525D01*
X270375Y45980D01*
X270567Y46305D01*
X270835Y46500D01*
X271103D01*
X271372Y46370D01*
X271602Y46045D01*
G01X275907Y43185D02*
X276137Y42860D01*
X276405Y42665D01*
X276750Y42600D01*
X277095Y42730D01*
X277363Y42990D01*
X277555Y43445D01*
X277593Y43965D01*
X277517Y44485D01*
X277325Y44810D01*
X277057Y45070D01*
X276788Y45135D01*
X276520Y45070D01*
X276175Y44810D01*
X276290Y46500D01*
X277325D01*
G01X278922Y44225D02*
X279190Y44680D01*
X279420Y44940D01*
X279727Y45070D01*
X279995Y44940D01*
X280187Y44680D01*
X280340Y44290D01*
X280378Y43835D01*
X280340Y43445D01*
X280187Y43055D01*
X279957Y42730D01*
X279688Y42600D01*
X279382Y42730D01*
X279113Y43120D01*
X278960Y43705D01*
X278922Y44355D01*
X278998Y45200D01*
X279113Y45655D01*
X279305Y46110D01*
X279573Y46435D01*
X279842Y46500D01*
X280110Y46370D01*
X280302Y46045D01*
G01X282550Y42470D02*
X282473Y42535D01*
Y42665D01*
X282550Y42730D01*
X282627Y42665D01*
Y42535D01*
X282550Y42470D01*
G01X285450Y46500D02*
X285143Y46370D01*
X284913Y46045D01*
X284760Y45655D01*
X284645Y45135D01*
X284607Y44550D01*
X284645Y43965D01*
X284760Y43445D01*
X284913Y43055D01*
X285143Y42730D01*
X285450Y42600D01*
X285757Y42730D01*
X285987Y43055D01*
X286140Y43445D01*
X286255Y43965D01*
X286293Y44550D01*
X286255Y45135D01*
X286140Y45655D01*
X285987Y46045D01*
X285757Y46370D01*
X285450Y46500D01*
G01X287507Y43185D02*
X287737Y42860D01*
X288005Y42665D01*
X288350Y42600D01*
X288695Y42730D01*
X288963Y42990D01*
X289155Y43445D01*
X289193Y43965D01*
X289117Y44485D01*
X288925Y44810D01*
X288657Y45070D01*
X288388Y45135D01*
X288120Y45070D01*
X287775Y44810D01*
X287890Y46500D01*
X288925D01*
G01X293153Y42600D02*
Y46500D01*
X294150Y43250D01*
X295147Y46500D01*
Y42600D01*
G01X296590Y46500D02*
X297510D01*
G01X297050D02*
Y42600D01*
G01X296590D02*
X297510D01*
G01X299183Y46500D02*
Y42600D01*
X300717D01*
G01X262650Y274510D02*
X258750D01*
X259530Y274050D01*
G01X262650D02*
Y274970D01*
G01X261350Y276912D02*
Y277908D01*
G01X259400Y279582D02*
X259010Y279812D01*
X258815Y280080D01*
X258750Y280387D01*
X258880Y280770D01*
X259205Y281038D01*
X259595Y281115D01*
X259985Y281077D01*
X260310Y280923D01*
X260960Y280157D01*
X261415Y279812D01*
X262065Y279582D01*
X262650Y279505D01*
Y281115D01*
G01X304157Y59670D02*
X305843Y62530D01*
G01X305000Y63050D02*
Y59150D01*
G01X305843Y59670D02*
X304157Y62530D01*
G01X303850Y61100D02*
X306150D01*
G01X312895Y60320D02*
X313202Y59995D01*
X313547Y59800D01*
X313853D01*
X314160Y59995D01*
X314390Y60320D01*
X314505Y60775D01*
X314428Y61230D01*
X314237Y61620D01*
X313892Y61880D01*
X313432Y62010D01*
X313163Y62270D01*
X313048Y62725D01*
X313125Y63180D01*
X313317Y63505D01*
X313585Y63700D01*
X313853D01*
X314122Y63570D01*
X314352Y63245D01*
G01X315757Y63700D02*
Y60905D01*
X315910Y60320D01*
X316217Y59930D01*
X316600Y59800D01*
X316983Y59930D01*
X317290Y60320D01*
X317443Y60905D01*
Y63700D01*
G01X318733Y59800D02*
Y63700D01*
X319692D01*
X319998Y63505D01*
X320190Y63245D01*
X320267Y62725D01*
X320190Y62205D01*
X319960Y61880D01*
X319692Y61685D01*
X318733D01*
G01X319692D02*
X320267Y59800D01*
G01X321672D02*
Y63700D01*
X323128D01*
G01X322592Y61815D02*
X321672D01*
G01X324342Y59800D02*
X325300Y63700D01*
X326258Y59800D01*
G01X325913Y61165D02*
X324687D01*
G01X329043Y63375D02*
X328813Y63570D01*
X328545Y63700D01*
X328238D01*
X327893Y63505D01*
X327625Y63180D01*
X327433Y62790D01*
X327280Y62140D01*
X327242Y61555D01*
X327318Y60970D01*
X327433Y60580D01*
X327663Y60190D01*
X327932Y59930D01*
X328200Y59800D01*
X328468D01*
X328737Y59930D01*
X328967Y60125D01*
X329158Y60385D01*
G01X331867Y59800D02*
X330333D01*
Y63700D01*
X331867D01*
G01X331253Y61815D02*
X330333D01*
G01X336402Y61100D02*
X337398D01*
G01X341742Y59800D02*
X342700Y63700D01*
X343658Y59800D01*
G01X343313Y61165D02*
X342087D01*
G01X345140Y63700D02*
X346060D01*
G01X345600D02*
Y59800D01*
G01X345140D02*
X346060D01*
G01X347733D02*
Y63700D01*
X348692D01*
X348998Y63505D01*
X349190Y63245D01*
X349267Y62725D01*
X349190Y62205D01*
X348960Y61880D01*
X348692Y61685D01*
X347733D01*
G01X348692D02*
X349267Y59800D01*
G01X354300Y63700D02*
X353993Y63570D01*
X353763Y63245D01*
X353610Y62855D01*
X353495Y62335D01*
X353457Y61750D01*
X353495Y61165D01*
X353610Y60645D01*
X353763Y60255D01*
X353993Y59930D01*
X354300Y59800D01*
X354607Y59930D01*
X354837Y60255D01*
X354990Y60645D01*
X355105Y61165D01*
X355143Y61750D01*
X355105Y62335D01*
X354990Y62855D01*
X354837Y63245D01*
X354607Y63570D01*
X354300Y63700D01*
G01X359103Y59800D02*
Y63700D01*
X360100Y60450D01*
X361097Y63700D01*
Y59800D01*
G01X362540Y63700D02*
X363460D01*
G01X363000D02*
Y59800D01*
G01X362540D02*
X363460D01*
G01X365133Y63700D02*
Y59800D01*
X366667D01*
G01X298433Y68900D02*
Y65000D01*
X299967D01*
G01X301372Y68250D02*
X301602Y68640D01*
X301870Y68835D01*
X302177Y68900D01*
X302560Y68770D01*
X302828Y68445D01*
X302905Y68055D01*
X302867Y67665D01*
X302713Y67340D01*
X301947Y66690D01*
X301602Y66235D01*
X301372Y65585D01*
X301295Y65000D01*
X302905D01*
G01X305000Y64870D02*
X304923Y64935D01*
Y65065D01*
X305000Y65130D01*
X305077Y65065D01*
Y64935D01*
X305000Y64870D01*
G01Y66625D02*
X304923Y66690D01*
Y66820D01*
X305000Y66885D01*
X305077Y66820D01*
Y66690D01*
X305000Y66625D01*
G01X311107Y67080D02*
X311260Y67275D01*
X311375Y67600D01*
X311452Y68055D01*
X311375Y68445D01*
X311222Y68705D01*
X310953Y68900D01*
X309918D01*
Y65000D01*
X311183D01*
X311452Y65260D01*
X311605Y65650D01*
X311682Y66105D01*
X311605Y66560D01*
X311375Y66950D01*
X311107Y67080D01*
X309918D01*
G01X313700Y65000D02*
X313393Y65065D01*
X313125Y65325D01*
X312895Y65715D01*
X312742Y66170D01*
X312665Y66690D01*
Y67210D01*
X312742Y67730D01*
X312895Y68185D01*
X313125Y68575D01*
X313393Y68835D01*
X313700Y68900D01*
X314007Y68835D01*
X314275Y68575D01*
X314505Y68185D01*
X314658Y67730D01*
X314735Y67210D01*
Y66690D01*
X314658Y66170D01*
X314505Y65715D01*
X314275Y65325D01*
X314007Y65065D01*
X313700Y65000D01*
G01X316600Y68900D02*
Y65000D01*
G01X315718Y68900D02*
X317482D01*
G01X319500D02*
Y65000D01*
G01X318618Y68900D02*
X320382D01*
G01X322400Y65000D02*
X322093Y65065D01*
X321825Y65325D01*
X321595Y65715D01*
X321442Y66170D01*
X321365Y66690D01*
Y67210D01*
X321442Y67730D01*
X321595Y68185D01*
X321825Y68575D01*
X322093Y68835D01*
X322400Y68900D01*
X322707Y68835D01*
X322975Y68575D01*
X323205Y68185D01*
X323358Y67730D01*
X323435Y67210D01*
Y66690D01*
X323358Y66170D01*
X323205Y65715D01*
X322975Y65325D01*
X322707Y65065D01*
X322400Y65000D01*
G01X324303D02*
Y68900D01*
X325300Y65650D01*
X326297Y68900D01*
Y65000D01*
G01X331943Y68575D02*
X331713Y68770D01*
X331445Y68900D01*
X331138D01*
X330793Y68705D01*
X330525Y68380D01*
X330333Y67990D01*
X330180Y67340D01*
X330142Y66755D01*
X330218Y66170D01*
X330333Y65780D01*
X330563Y65390D01*
X330832Y65130D01*
X331100Y65000D01*
X331368D01*
X331637Y65130D01*
X331867Y65325D01*
X332058Y65585D01*
G01X334000Y65000D02*
X333693Y65065D01*
X333425Y65325D01*
X333195Y65715D01*
X333042Y66170D01*
X332965Y66690D01*
Y67210D01*
X333042Y67730D01*
X333195Y68185D01*
X333425Y68575D01*
X333693Y68835D01*
X334000Y68900D01*
X334307Y68835D01*
X334575Y68575D01*
X334805Y68185D01*
X334958Y67730D01*
X335035Y67210D01*
Y66690D01*
X334958Y66170D01*
X334805Y65715D01*
X334575Y65325D01*
X334307Y65065D01*
X334000Y65000D01*
G01X336018D02*
Y68900D01*
X337782Y65000D01*
Y68900D01*
G01X338957Y65000D02*
Y68900D01*
X339723D01*
X340030Y68705D01*
X340260Y68445D01*
X340452Y68055D01*
X340605Y67600D01*
X340643Y66950D01*
X340605Y66300D01*
X340452Y65845D01*
X340260Y65455D01*
X340030Y65195D01*
X339723Y65000D01*
X338957D01*
G01X341857Y68900D02*
Y66105D01*
X342010Y65520D01*
X342317Y65130D01*
X342700Y65000D01*
X343083Y65130D01*
X343390Y65520D01*
X343543Y66105D01*
Y68900D01*
G01X346443Y68575D02*
X346213Y68770D01*
X345945Y68900D01*
X345638D01*
X345293Y68705D01*
X345025Y68380D01*
X344833Y67990D01*
X344680Y67340D01*
X344642Y66755D01*
X344718Y66170D01*
X344833Y65780D01*
X345063Y65390D01*
X345332Y65130D01*
X345600Y65000D01*
X345868D01*
X346137Y65130D01*
X346367Y65325D01*
X346558Y65585D01*
G01X348500Y68900D02*
Y65000D01*
G01X347618Y68900D02*
X349382D01*
G01X351400Y65000D02*
X351093Y65065D01*
X350825Y65325D01*
X350595Y65715D01*
X350442Y66170D01*
X350365Y66690D01*
Y67210D01*
X350442Y67730D01*
X350595Y68185D01*
X350825Y68575D01*
X351093Y68835D01*
X351400Y68900D01*
X351707Y68835D01*
X351975Y68575D01*
X352205Y68185D01*
X352358Y67730D01*
X352435Y67210D01*
Y66690D01*
X352358Y66170D01*
X352205Y65715D01*
X351975Y65325D01*
X351707Y65065D01*
X351400Y65000D01*
G01X353533D02*
Y68900D01*
X354492D01*
X354798Y68705D01*
X354990Y68445D01*
X355067Y67925D01*
X354990Y67405D01*
X354760Y67080D01*
X354492Y66885D01*
X353533D01*
G01X354492D02*
X355067Y65000D01*
G01X359602Y66300D02*
X360598D01*
G01X366743Y68575D02*
X366513Y68770D01*
X366245Y68900D01*
X365938D01*
X365593Y68705D01*
X365325Y68380D01*
X365133Y67990D01*
X364980Y67340D01*
X364942Y66755D01*
X365018Y66170D01*
X365133Y65780D01*
X365363Y65390D01*
X365632Y65130D01*
X365900Y65000D01*
X366168D01*
X366437Y65130D01*
X366667Y65325D01*
X366858Y65585D01*
G01X368800Y65000D02*
X368493Y65065D01*
X368225Y65325D01*
X367995Y65715D01*
X367842Y66170D01*
X367765Y66690D01*
Y67210D01*
X367842Y67730D01*
X367995Y68185D01*
X368225Y68575D01*
X368493Y68835D01*
X368800Y68900D01*
X369107Y68835D01*
X369375Y68575D01*
X369605Y68185D01*
X369758Y67730D01*
X369835Y67210D01*
Y66690D01*
X369758Y66170D01*
X369605Y65715D01*
X369375Y65325D01*
X369107Y65065D01*
X368800Y65000D01*
G01X370933D02*
Y68900D01*
X371853D01*
X372160Y68705D01*
X372390Y68250D01*
X372467Y67730D01*
X372390Y67210D01*
X372198Y66820D01*
X371853Y66625D01*
X370933D01*
G01X373833Y65000D02*
Y68900D01*
X374753D01*
X375060Y68705D01*
X375290Y68250D01*
X375367Y67730D01*
X375290Y67210D01*
X375098Y66820D01*
X374753Y66625D01*
X373833D01*
G01X378267Y65000D02*
X376733D01*
Y68900D01*
X378267D01*
G01X377653Y67015D02*
X376733D01*
G01X379633Y65000D02*
Y68900D01*
X380592D01*
X380898Y68705D01*
X381090Y68445D01*
X381167Y67925D01*
X381090Y67405D01*
X380860Y67080D01*
X380592Y66885D01*
X379633D01*
G01X380592D02*
X381167Y65000D01*
G01X386200Y68900D02*
X385893Y68770D01*
X385663Y68445D01*
X385510Y68055D01*
X385395Y67535D01*
X385357Y66950D01*
X385395Y66365D01*
X385510Y65845D01*
X385663Y65455D01*
X385893Y65130D01*
X386200Y65000D01*
X386507Y65130D01*
X386737Y65455D01*
X386890Y65845D01*
X387005Y66365D01*
X387043Y66950D01*
X387005Y67535D01*
X386890Y68055D01*
X386737Y68445D01*
X386507Y68770D01*
X386200Y68900D01*
G01X389100Y64870D02*
X389023Y64935D01*
Y65065D01*
X389100Y65130D01*
X389177Y65065D01*
Y64935D01*
X389100Y64870D01*
G01X391923Y65000D02*
X392000Y65845D01*
X392115Y66560D01*
X392268Y67210D01*
X392460Y67925D01*
X392767Y68900D01*
X391233D01*
G01X396803Y65000D02*
Y68900D01*
X397800Y65650D01*
X398797Y68900D01*
Y65000D01*
G01X400240Y68900D02*
X401160D01*
G01X400700D02*
Y65000D01*
G01X400240D02*
X401160D01*
G01X402833Y68900D02*
Y65000D01*
X404367D01*
G01X304157Y168440D02*
X305843Y171300D01*
G01X305000Y171820D02*
Y167920D01*
G01X305843Y168440D02*
X304157Y171300D01*
G01X303850Y169870D02*
X306150D01*
G01X312857Y168570D02*
Y172470D01*
X313623D01*
X313930Y172275D01*
X314160Y172015D01*
X314352Y171625D01*
X314505Y171170D01*
X314543Y170520D01*
X314505Y169870D01*
X314352Y169415D01*
X314160Y169025D01*
X313930Y168765D01*
X313623Y168570D01*
X312857D01*
G01X316140Y172470D02*
X317060D01*
G01X316600D02*
Y168570D01*
G01X316140D02*
X317060D01*
G01X320267D02*
X318733D01*
Y172470D01*
X320267D01*
G01X319653Y170585D02*
X318733D01*
G01X321633Y172470D02*
Y168570D01*
X323167D01*
G01X326067D02*
X324533D01*
Y172470D01*
X326067D01*
G01X325453Y170585D02*
X324533D01*
G01X329043Y172145D02*
X328813Y172340D01*
X328545Y172470D01*
X328238D01*
X327893Y172275D01*
X327625Y171950D01*
X327433Y171560D01*
X327280Y170910D01*
X327242Y170325D01*
X327318Y169740D01*
X327433Y169350D01*
X327663Y168960D01*
X327932Y168700D01*
X328200Y168570D01*
X328468D01*
X328737Y168700D01*
X328967Y168895D01*
X329158Y169155D01*
G01X331100Y172470D02*
Y168570D01*
G01X330218Y172470D02*
X331982D01*
G01X333233Y168570D02*
Y172470D01*
X334192D01*
X334498Y172275D01*
X334690Y172015D01*
X334767Y171495D01*
X334690Y170975D01*
X334460Y170650D01*
X334192Y170455D01*
X333233D01*
G01X334192D02*
X334767Y168570D01*
G01X336440Y172470D02*
X337360D01*
G01X336900D02*
Y168570D01*
G01X336440D02*
X337360D01*
G01X340643Y172145D02*
X340413Y172340D01*
X340145Y172470D01*
X339838D01*
X339493Y172275D01*
X339225Y171950D01*
X339033Y171560D01*
X338880Y170910D01*
X338842Y170325D01*
X338918Y169740D01*
X339033Y169350D01*
X339263Y168960D01*
X339532Y168700D01*
X339800Y168570D01*
X340068D01*
X340337Y168700D01*
X340567Y168895D01*
X340758Y169155D01*
G01X345102Y169870D02*
X346098D01*
G01X350672Y168570D02*
Y172470D01*
X352128D01*
G01X351592Y170585D02*
X350672D01*
G01X353533Y168570D02*
Y172470D01*
X354492D01*
X354798Y172275D01*
X354990Y172015D01*
X355067Y171495D01*
X354990Y170975D01*
X354760Y170650D01*
X354492Y170455D01*
X353533D01*
G01X354492D02*
X355067Y168570D01*
G01X356702Y169870D02*
X357698D01*
G01X360560Y168570D02*
Y172470D01*
X359142Y169675D01*
X361058D01*
G01X365057Y169155D02*
X365287Y168830D01*
X365555Y168635D01*
X365900Y168570D01*
X366245Y168700D01*
X366513Y168960D01*
X366705Y169415D01*
X366743Y169935D01*
X366667Y170455D01*
X366475Y170780D01*
X366207Y171040D01*
X365938Y171105D01*
X365670Y171040D01*
X365325Y170780D01*
X365440Y172470D01*
X366475D01*
G01X369260Y168570D02*
Y172470D01*
X367842Y169675D01*
X369758D01*
G01X371700Y168440D02*
X371623Y168505D01*
Y168635D01*
X371700Y168700D01*
X371777Y168635D01*
Y168505D01*
X371700Y168440D01*
G01X373872Y170195D02*
X374140Y170650D01*
X374370Y170910D01*
X374677Y171040D01*
X374945Y170910D01*
X375137Y170650D01*
X375290Y170260D01*
X375328Y169805D01*
X375290Y169415D01*
X375137Y169025D01*
X374907Y168700D01*
X374638Y168570D01*
X374332Y168700D01*
X374063Y169090D01*
X373910Y169675D01*
X373872Y170325D01*
X373948Y171170D01*
X374063Y171625D01*
X374255Y172080D01*
X374523Y172405D01*
X374792Y172470D01*
X375060Y172340D01*
X375252Y172015D01*
G01X376657Y169155D02*
X376887Y168830D01*
X377155Y168635D01*
X377500Y168570D01*
X377845Y168700D01*
X378113Y168960D01*
X378305Y169415D01*
X378343Y169935D01*
X378267Y170455D01*
X378075Y170780D01*
X377807Y171040D01*
X377538Y171105D01*
X377270Y171040D01*
X376925Y170780D01*
X377040Y172470D01*
X378075D01*
G01X382303Y168570D02*
Y172470D01*
X383300Y169220D01*
X384297Y172470D01*
Y168570D01*
G01X385740Y172470D02*
X386660D01*
G01X386200D02*
Y168570D01*
G01X385740D02*
X386660D01*
G01X388333Y172470D02*
Y168570D01*
X389867D01*
G01X304157Y270630D02*
X305843Y273490D01*
G01X305000Y274010D02*
Y270110D01*
G01X305843Y270630D02*
X304157Y273490D01*
G01X303850Y272060D02*
X306150D01*
G01X312895Y271280D02*
X313202Y270955D01*
X313547Y270760D01*
X313853D01*
X314160Y270955D01*
X314390Y271280D01*
X314505Y271735D01*
X314428Y272190D01*
X314237Y272580D01*
X313892Y272840D01*
X313432Y272970D01*
X313163Y273230D01*
X313048Y273685D01*
X313125Y274140D01*
X313317Y274465D01*
X313585Y274660D01*
X313853D01*
X314122Y274530D01*
X314352Y274205D01*
G01X315757Y274660D02*
Y271865D01*
X315910Y271280D01*
X316217Y270890D01*
X316600Y270760D01*
X316983Y270890D01*
X317290Y271280D01*
X317443Y271865D01*
Y274660D01*
G01X318733Y270760D02*
Y274660D01*
X319692D01*
X319998Y274465D01*
X320190Y274205D01*
X320267Y273685D01*
X320190Y273165D01*
X319960Y272840D01*
X319692Y272645D01*
X318733D01*
G01X319692D02*
X320267Y270760D01*
G01X321672D02*
Y274660D01*
X323128D01*
G01X322592Y272775D02*
X321672D01*
G01X324342Y270760D02*
X325300Y274660D01*
X326258Y270760D01*
G01X325913Y272125D02*
X324687D01*
G01X329043Y274335D02*
X328813Y274530D01*
X328545Y274660D01*
X328238D01*
X327893Y274465D01*
X327625Y274140D01*
X327433Y273750D01*
X327280Y273100D01*
X327242Y272515D01*
X327318Y271930D01*
X327433Y271540D01*
X327663Y271150D01*
X327932Y270890D01*
X328200Y270760D01*
X328468D01*
X328737Y270890D01*
X328967Y271085D01*
X329158Y271345D01*
G01X331867Y270760D02*
X330333D01*
Y274660D01*
X331867D01*
G01X331253Y272775D02*
X330333D01*
G01X336402Y272060D02*
X337398D01*
G01X341742Y270760D02*
X342700Y274660D01*
X343658Y270760D01*
G01X343313Y272125D02*
X342087D01*
G01X345140Y274660D02*
X346060D01*
G01X345600D02*
Y270760D01*
G01X345140D02*
X346060D01*
G01X347733D02*
Y274660D01*
X348692D01*
X348998Y274465D01*
X349190Y274205D01*
X349267Y273685D01*
X349190Y273165D01*
X348960Y272840D01*
X348692Y272645D01*
X347733D01*
G01X348692D02*
X349267Y270760D01*
G01X354300Y274660D02*
X353993Y274530D01*
X353763Y274205D01*
X353610Y273815D01*
X353495Y273295D01*
X353457Y272710D01*
X353495Y272125D01*
X353610Y271605D01*
X353763Y271215D01*
X353993Y270890D01*
X354300Y270760D01*
X354607Y270890D01*
X354837Y271215D01*
X354990Y271605D01*
X355105Y272125D01*
X355143Y272710D01*
X355105Y273295D01*
X354990Y273815D01*
X354837Y274205D01*
X354607Y274530D01*
X354300Y274660D01*
G01X359103Y270760D02*
Y274660D01*
X360100Y271410D01*
X361097Y274660D01*
Y270760D01*
G01X362540Y274660D02*
X363460D01*
G01X363000D02*
Y270760D01*
G01X362540D02*
X363460D01*
G01X365133Y274660D02*
Y270760D01*
X366667D01*
G01X298433Y268160D02*
Y264260D01*
X299967D01*
G01X302100D02*
Y268160D01*
X301640Y267380D01*
G01Y264260D02*
X302560D01*
G01X305000Y264130D02*
X304923Y264195D01*
Y264325D01*
X305000Y264390D01*
X305077Y264325D01*
Y264195D01*
X305000Y264130D01*
G01Y265885D02*
X304923Y265950D01*
Y266080D01*
X305000Y266145D01*
X305077Y266080D01*
Y265950D01*
X305000Y265885D01*
G01X310800Y268160D02*
Y264260D01*
G01X309918Y268160D02*
X311682D01*
G01X313700Y264260D02*
X313393Y264325D01*
X313125Y264585D01*
X312895Y264975D01*
X312742Y265430D01*
X312665Y265950D01*
Y266470D01*
X312742Y266990D01*
X312895Y267445D01*
X313125Y267835D01*
X313393Y268095D01*
X313700Y268160D01*
X314007Y268095D01*
X314275Y267835D01*
X314505Y267445D01*
X314658Y266990D01*
X314735Y266470D01*
Y265950D01*
X314658Y265430D01*
X314505Y264975D01*
X314275Y264585D01*
X314007Y264325D01*
X313700Y264260D01*
G01X315833D02*
Y268160D01*
X316753D01*
X317060Y267965D01*
X317290Y267510D01*
X317367Y266990D01*
X317290Y266470D01*
X317098Y266080D01*
X316753Y265885D01*
X315833D01*
G01X323243Y267835D02*
X323013Y268030D01*
X322745Y268160D01*
X322438D01*
X322093Y267965D01*
X321825Y267640D01*
X321633Y267250D01*
X321480Y266600D01*
X321442Y266015D01*
X321518Y265430D01*
X321633Y265040D01*
X321863Y264650D01*
X322132Y264390D01*
X322400Y264260D01*
X322668D01*
X322937Y264390D01*
X323167Y264585D01*
X323358Y264845D01*
G01X325300Y264260D02*
X324993Y264325D01*
X324725Y264585D01*
X324495Y264975D01*
X324342Y265430D01*
X324265Y265950D01*
Y266470D01*
X324342Y266990D01*
X324495Y267445D01*
X324725Y267835D01*
X324993Y268095D01*
X325300Y268160D01*
X325607Y268095D01*
X325875Y267835D01*
X326105Y267445D01*
X326258Y266990D01*
X326335Y266470D01*
Y265950D01*
X326258Y265430D01*
X326105Y264975D01*
X325875Y264585D01*
X325607Y264325D01*
X325300Y264260D01*
G01X327318D02*
Y268160D01*
X329082Y264260D01*
Y268160D01*
G01X330257Y264260D02*
Y268160D01*
X331023D01*
X331330Y267965D01*
X331560Y267705D01*
X331752Y267315D01*
X331905Y266860D01*
X331943Y266210D01*
X331905Y265560D01*
X331752Y265105D01*
X331560Y264715D01*
X331330Y264455D01*
X331023Y264260D01*
X330257D01*
G01X333157Y268160D02*
Y265365D01*
X333310Y264780D01*
X333617Y264390D01*
X334000Y264260D01*
X334383Y264390D01*
X334690Y264780D01*
X334843Y265365D01*
Y268160D01*
G01X337743Y267835D02*
X337513Y268030D01*
X337245Y268160D01*
X336938D01*
X336593Y267965D01*
X336325Y267640D01*
X336133Y267250D01*
X335980Y266600D01*
X335942Y266015D01*
X336018Y265430D01*
X336133Y265040D01*
X336363Y264650D01*
X336632Y264390D01*
X336900Y264260D01*
X337168D01*
X337437Y264390D01*
X337667Y264585D01*
X337858Y264845D01*
G01X339800Y268160D02*
Y264260D01*
G01X338918Y268160D02*
X340682D01*
G01X342700Y264260D02*
X342393Y264325D01*
X342125Y264585D01*
X341895Y264975D01*
X341742Y265430D01*
X341665Y265950D01*
Y266470D01*
X341742Y266990D01*
X341895Y267445D01*
X342125Y267835D01*
X342393Y268095D01*
X342700Y268160D01*
X343007Y268095D01*
X343275Y267835D01*
X343505Y267445D01*
X343658Y266990D01*
X343735Y266470D01*
Y265950D01*
X343658Y265430D01*
X343505Y264975D01*
X343275Y264585D01*
X343007Y264325D01*
X342700Y264260D01*
G01X344833D02*
Y268160D01*
X345792D01*
X346098Y267965D01*
X346290Y267705D01*
X346367Y267185D01*
X346290Y266665D01*
X346060Y266340D01*
X345792Y266145D01*
X344833D01*
G01X345792D02*
X346367Y264260D01*
G01X350902Y265560D02*
X351898D01*
G01X358043Y267835D02*
X357813Y268030D01*
X357545Y268160D01*
X357238D01*
X356893Y267965D01*
X356625Y267640D01*
X356433Y267250D01*
X356280Y266600D01*
X356242Y266015D01*
X356318Y265430D01*
X356433Y265040D01*
X356663Y264650D01*
X356932Y264390D01*
X357200Y264260D01*
X357468D01*
X357737Y264390D01*
X357967Y264585D01*
X358158Y264845D01*
G01X360100Y264260D02*
X359793Y264325D01*
X359525Y264585D01*
X359295Y264975D01*
X359142Y265430D01*
X359065Y265950D01*
Y266470D01*
X359142Y266990D01*
X359295Y267445D01*
X359525Y267835D01*
X359793Y268095D01*
X360100Y268160D01*
X360407Y268095D01*
X360675Y267835D01*
X360905Y267445D01*
X361058Y266990D01*
X361135Y266470D01*
Y265950D01*
X361058Y265430D01*
X360905Y264975D01*
X360675Y264585D01*
X360407Y264325D01*
X360100Y264260D01*
G01X362233D02*
Y268160D01*
X363153D01*
X363460Y267965D01*
X363690Y267510D01*
X363767Y266990D01*
X363690Y266470D01*
X363498Y266080D01*
X363153Y265885D01*
X362233D01*
G01X365133Y264260D02*
Y268160D01*
X366053D01*
X366360Y267965D01*
X366590Y267510D01*
X366667Y266990D01*
X366590Y266470D01*
X366398Y266080D01*
X366053Y265885D01*
X365133D01*
G01X369567Y264260D02*
X368033D01*
Y268160D01*
X369567D01*
G01X368953Y266275D02*
X368033D01*
G01X370933Y264260D02*
Y268160D01*
X371892D01*
X372198Y267965D01*
X372390Y267705D01*
X372467Y267185D01*
X372390Y266665D01*
X372160Y266340D01*
X371892Y266145D01*
X370933D01*
G01X371892D02*
X372467Y264260D01*
G01X377500Y268160D02*
X377193Y268030D01*
X376963Y267705D01*
X376810Y267315D01*
X376695Y266795D01*
X376657Y266210D01*
X376695Y265625D01*
X376810Y265105D01*
X376963Y264715D01*
X377193Y264390D01*
X377500Y264260D01*
X377807Y264390D01*
X378037Y264715D01*
X378190Y265105D01*
X378305Y265625D01*
X378343Y266210D01*
X378305Y266795D01*
X378190Y267315D01*
X378037Y267705D01*
X377807Y268030D01*
X377500Y268160D01*
G01X380400Y264130D02*
X380323Y264195D01*
Y264325D01*
X380400Y264390D01*
X380477Y264325D01*
Y264195D01*
X380400Y264130D01*
G01X383223Y264260D02*
X383300Y265105D01*
X383415Y265820D01*
X383568Y266470D01*
X383760Y267185D01*
X384067Y268160D01*
X382533D01*
G01X388103Y264260D02*
Y268160D01*
X389100Y264910D01*
X390097Y268160D01*
Y264260D01*
G01X391540Y268160D02*
X392460D01*
G01X392000D02*
Y264260D01*
G01X391540D02*
X392460D01*
G01X394133Y268160D02*
Y264260D01*
X395667D01*
G01X454222Y193350D02*
Y197250D01*
X455678D01*
G01X455142Y195365D02*
X454222D01*
G01X459890Y197250D02*
X460810D01*
G01X460350D02*
Y193350D01*
G01X459890D02*
X460810D01*
G01X465980Y195300D02*
X466747D01*
Y194130D01*
X466517Y193740D01*
X466248Y193480D01*
X465865Y193350D01*
X465482Y193480D01*
X465213Y193740D01*
X464983Y194130D01*
X464830Y194585D01*
X464753Y195105D01*
Y195560D01*
X464830Y195950D01*
X464983Y196405D01*
X465213Y196795D01*
X465443Y197055D01*
X465750Y197250D01*
X466018D01*
X466325Y197120D01*
X466555Y196860D01*
G01X470307Y197250D02*
Y194455D01*
X470460Y193870D01*
X470767Y193480D01*
X471150Y193350D01*
X471533Y193480D01*
X471840Y193870D01*
X471993Y194455D01*
Y197250D01*
G01X475783Y193350D02*
Y197250D01*
X476742D01*
X477048Y197055D01*
X477240Y196795D01*
X477317Y196275D01*
X477240Y195755D01*
X477010Y195430D01*
X476742Y195235D01*
X475783D01*
G01X476742D02*
X477317Y193350D01*
G01X482717D02*
X481183D01*
Y197250D01*
X482717D01*
G01X482103Y195365D02*
X481183D01*
G01X504542Y201150D02*
X505500Y205050D01*
X506458Y201150D01*
G01X506113Y202515D02*
X504887D01*
G01X510133Y205050D02*
Y201150D01*
X511667D01*
G01X515533Y205050D02*
Y201150D01*
X517067D01*
G01X526257Y205050D02*
Y202255D01*
X526410Y201670D01*
X526717Y201280D01*
X527100Y201150D01*
X527483Y201280D01*
X527790Y201670D01*
X527943Y202255D01*
Y205050D01*
G01X531618Y201150D02*
Y205050D01*
X533382Y201150D01*
Y205050D01*
G01X537440D02*
X538360D01*
G01X537900D02*
Y201150D01*
G01X537440D02*
X538360D01*
G01X543300Y205050D02*
Y201150D01*
G01X542418Y205050D02*
X544182D01*
G01X547895Y201670D02*
X548202Y201345D01*
X548547Y201150D01*
X548853D01*
X549160Y201345D01*
X549390Y201670D01*
X549505Y202125D01*
X549428Y202580D01*
X549237Y202970D01*
X548892Y203230D01*
X548432Y203360D01*
X548163Y203620D01*
X548048Y204075D01*
X548125Y204530D01*
X548317Y204855D01*
X548585Y205050D01*
X548853D01*
X549122Y204920D01*
X549352Y204595D01*
G01X558542Y201150D02*
X559500Y205050D01*
X560458Y201150D01*
G01X560113Y202515D02*
X558887D01*
G01X564133Y201150D02*
Y205050D01*
X565092D01*
X565398Y204855D01*
X565590Y204595D01*
X565667Y204075D01*
X565590Y203555D01*
X565360Y203230D01*
X565092Y203035D01*
X564133D01*
G01X565092D02*
X565667Y201150D01*
G01X571067D02*
X569533D01*
Y205050D01*
X571067D01*
G01X570453Y203165D02*
X569533D01*
G01X580640Y205050D02*
X581560D01*
G01X581100D02*
Y201150D01*
G01X580640D02*
X581560D01*
G01X585618D02*
Y205050D01*
X587382Y201150D01*
Y205050D01*
G01X596303Y201150D02*
Y205050D01*
X597300Y201800D01*
X598297Y205050D01*
Y201150D01*
G01X602240Y205050D02*
X603160D01*
G01X602700D02*
Y201150D01*
G01X602240D02*
X603160D01*
G01X607333Y205050D02*
Y201150D01*
X608867D01*
G01X612695Y201670D02*
X613002Y201345D01*
X613347Y201150D01*
X613653D01*
X613960Y201345D01*
X614190Y201670D01*
X614305Y202125D01*
X614228Y202580D01*
X614037Y202970D01*
X613692Y203230D01*
X613232Y203360D01*
X612963Y203620D01*
X612848Y204075D01*
X612925Y204530D01*
X613117Y204855D01*
X613385Y205050D01*
X613653D01*
X613922Y204920D01*
X614152Y204595D01*
G01X500522Y193350D02*
Y197250D01*
X501978D01*
G01X501442Y195365D02*
X500522D01*
G01X506190Y197250D02*
X507110D01*
G01X506650D02*
Y193350D01*
G01X506190D02*
X507110D01*
G01X511168D02*
Y197250D01*
X512932Y193350D01*
Y197250D01*
G01X516990D02*
X517910D01*
G01X517450D02*
Y193350D01*
G01X516990D02*
X517910D01*
G01X522045Y193870D02*
X522352Y193545D01*
X522697Y193350D01*
X523003D01*
X523310Y193545D01*
X523540Y193870D01*
X523655Y194325D01*
X523578Y194780D01*
X523387Y195170D01*
X523042Y195430D01*
X522582Y195560D01*
X522313Y195820D01*
X522198Y196275D01*
X522275Y196730D01*
X522467Y197055D01*
X522735Y197250D01*
X523003D01*
X523272Y197120D01*
X523502Y196795D01*
G01X527445Y193350D02*
Y197250D01*
G01X529055D02*
Y193350D01*
G01Y195300D02*
X527445D01*
G01X534417Y193350D02*
X532883D01*
Y197250D01*
X534417D01*
G01X533803Y195365D02*
X532883D01*
G01X538207Y193350D02*
Y197250D01*
X538973D01*
X539280Y197055D01*
X539510Y196795D01*
X539702Y196405D01*
X539855Y195950D01*
X539893Y195300D01*
X539855Y194650D01*
X539702Y194195D01*
X539510Y193805D01*
X539280Y193545D01*
X538973Y193350D01*
X538207D01*
G01X543300Y192050D02*
X545600D01*
G01X549045Y193870D02*
X549352Y193545D01*
X549697Y193350D01*
X550003D01*
X550310Y193545D01*
X550540Y193870D01*
X550655Y194325D01*
X550578Y194780D01*
X550387Y195170D01*
X550042Y195430D01*
X549582Y195560D01*
X549313Y195820D01*
X549198Y196275D01*
X549275Y196730D01*
X549467Y197055D01*
X549735Y197250D01*
X550003D01*
X550272Y197120D01*
X550502Y196795D01*
G01X554790Y197250D02*
X555710D01*
G01X555250D02*
Y193350D01*
G01X554790D02*
X555710D01*
G01X559922Y197250D02*
X561378D01*
X559922Y193350D01*
X561378D01*
G01X566817D02*
X565283D01*
Y197250D01*
X566817D01*
G01X566203Y195365D02*
X565283D01*
G01X491157Y226150D02*
Y230050D01*
X491923D01*
X492230Y229855D01*
X492460Y229595D01*
X492652Y229205D01*
X492805Y228750D01*
X492843Y228100D01*
X492805Y227450D01*
X492652Y226995D01*
X492460Y226605D01*
X492230Y226345D01*
X491923Y226150D01*
X491157D01*
G01X496633D02*
Y230050D01*
X497592D01*
X497898Y229855D01*
X498090Y229595D01*
X498167Y229075D01*
X498090Y228555D01*
X497860Y228230D01*
X497592Y228035D01*
X496633D01*
G01X497592D02*
X498167Y226150D01*
G01X502340Y230050D02*
X503260D01*
G01X502800D02*
Y226150D01*
G01X502340D02*
X503260D01*
G01X507433Y230050D02*
Y226150D01*
X508967D01*
G01X512833Y230050D02*
Y226150D01*
X514367D01*
G01X525243Y229725D02*
X525013Y229920D01*
X524745Y230050D01*
X524438D01*
X524093Y229855D01*
X523825Y229530D01*
X523633Y229140D01*
X523480Y228490D01*
X523442Y227905D01*
X523518Y227320D01*
X523633Y226930D01*
X523863Y226540D01*
X524132Y226280D01*
X524400Y226150D01*
X524668D01*
X524937Y226280D01*
X525167Y226475D01*
X525358Y226735D01*
G01X528995Y226150D02*
Y230050D01*
G01X530605D02*
Y226150D01*
G01Y228100D02*
X528995D01*
G01X534242Y226150D02*
X535200Y230050D01*
X536158Y226150D01*
G01X535813Y227515D02*
X534587D01*
G01X539833Y226150D02*
Y230050D01*
X540792D01*
X541098Y229855D01*
X541290Y229595D01*
X541367Y229075D01*
X541290Y228555D01*
X541060Y228230D01*
X540792Y228035D01*
X539833D01*
G01X540792D02*
X541367Y226150D01*
G01X546000Y230050D02*
Y226150D01*
G01X545118Y230050D02*
X546882D01*
G01X551400Y226020D02*
X551323Y226085D01*
Y226215D01*
X551400Y226280D01*
X551477Y226215D01*
Y226085D01*
X551400Y226020D01*
G01Y227775D02*
X551323Y227840D01*
Y227970D01*
X551400Y228035D01*
X551477Y227970D01*
Y227840D01*
X551400Y227775D01*
G01X562200Y230050D02*
Y226150D01*
G01X561318Y230050D02*
X563082D01*
G01X567600Y226150D02*
X567293Y226215D01*
X567025Y226475D01*
X566795Y226865D01*
X566642Y227320D01*
X566565Y227840D01*
Y228360D01*
X566642Y228880D01*
X566795Y229335D01*
X567025Y229725D01*
X567293Y229985D01*
X567600Y230050D01*
X567907Y229985D01*
X568175Y229725D01*
X568405Y229335D01*
X568558Y228880D01*
X568635Y228360D01*
Y227840D01*
X568558Y227320D01*
X568405Y226865D01*
X568175Y226475D01*
X567907Y226215D01*
X567600Y226150D01*
G01X572233D02*
Y230050D01*
X573153D01*
X573460Y229855D01*
X573690Y229400D01*
X573767Y228880D01*
X573690Y228360D01*
X573498Y227970D01*
X573153Y227775D01*
X572233D01*
G01X583800Y230050D02*
Y226150D01*
G01X583263Y228750D02*
X584337D01*
G01X589200Y226150D02*
X588970Y226215D01*
X588740Y226475D01*
X588587Y226930D01*
X588510Y227450D01*
X588587Y227970D01*
X588740Y228425D01*
X588970Y228685D01*
X589200Y228750D01*
X589430Y228685D01*
X589660Y228425D01*
X589813Y227970D01*
X589852Y227450D01*
X589813Y226930D01*
X589660Y226475D01*
X589430Y226215D01*
X589200Y226150D01*
G01X600307Y228230D02*
X600460Y228425D01*
X600575Y228750D01*
X600652Y229205D01*
X600575Y229595D01*
X600422Y229855D01*
X600153Y230050D01*
X599118D01*
Y226150D01*
X600383D01*
X600652Y226410D01*
X600805Y226800D01*
X600882Y227255D01*
X600805Y227710D01*
X600575Y228100D01*
X600307Y228230D01*
X599118D01*
G01X605400Y226150D02*
X605093Y226215D01*
X604825Y226475D01*
X604595Y226865D01*
X604442Y227320D01*
X604365Y227840D01*
Y228360D01*
X604442Y228880D01*
X604595Y229335D01*
X604825Y229725D01*
X605093Y229985D01*
X605400Y230050D01*
X605707Y229985D01*
X605975Y229725D01*
X606205Y229335D01*
X606358Y228880D01*
X606435Y228360D01*
Y227840D01*
X606358Y227320D01*
X606205Y226865D01*
X605975Y226475D01*
X605707Y226215D01*
X605400Y226150D01*
G01X610800Y230050D02*
Y226150D01*
G01X609918Y230050D02*
X611682D01*
G01X616200D02*
Y226150D01*
G01X615318Y230050D02*
X617082D01*
G01X621600Y226150D02*
X621293Y226215D01*
X621025Y226475D01*
X620795Y226865D01*
X620642Y227320D01*
X620565Y227840D01*
Y228360D01*
X620642Y228880D01*
X620795Y229335D01*
X621025Y229725D01*
X621293Y229985D01*
X621600Y230050D01*
X621907Y229985D01*
X622175Y229725D01*
X622405Y229335D01*
X622558Y228880D01*
X622635Y228360D01*
Y227840D01*
X622558Y227320D01*
X622405Y226865D01*
X622175Y226475D01*
X621907Y226215D01*
X621600Y226150D01*
G01X626003D02*
Y230050D01*
X627000Y226800D01*
X627997Y230050D01*
Y226150D01*
G01X525550Y185550D02*
Y189450D01*
X525090Y188670D01*
G01Y185550D02*
X526010D01*
G01X530222Y187175D02*
X530490Y187630D01*
X530720Y187890D01*
X531027Y188020D01*
X531295Y187890D01*
X531487Y187630D01*
X531640Y187240D01*
X531678Y186785D01*
X531640Y186395D01*
X531487Y186005D01*
X531257Y185680D01*
X530988Y185550D01*
X530682Y185680D01*
X530413Y186070D01*
X530260Y186655D01*
X530222Y187305D01*
X530298Y188150D01*
X530413Y188605D01*
X530605Y189060D01*
X530873Y189385D01*
X531142Y189450D01*
X531410Y189320D01*
X531602Y188995D01*
G01X536350Y185420D02*
X536273Y185485D01*
Y185615D01*
X536350Y185680D01*
X536427Y185615D01*
Y185485D01*
X536350Y185420D01*
G01X541750Y189450D02*
X541443Y189320D01*
X541213Y188995D01*
X541060Y188605D01*
X540945Y188085D01*
X540907Y187500D01*
X540945Y186915D01*
X541060Y186395D01*
X541213Y186005D01*
X541443Y185680D01*
X541750Y185550D01*
X542057Y185680D01*
X542287Y186005D01*
X542440Y186395D01*
X542555Y186915D01*
X542593Y187500D01*
X542555Y188085D01*
X542440Y188605D01*
X542287Y188995D01*
X542057Y189320D01*
X541750Y189450D01*
G01X571050Y181650D02*
Y177750D01*
G01X570168Y181650D02*
X571932D01*
G01X576450Y177750D02*
X576143Y177815D01*
X575875Y178075D01*
X575645Y178465D01*
X575492Y178920D01*
X575415Y179440D01*
Y179960D01*
X575492Y180480D01*
X575645Y180935D01*
X575875Y181325D01*
X576143Y181585D01*
X576450Y181650D01*
X576757Y181585D01*
X577025Y181325D01*
X577255Y180935D01*
X577408Y180480D01*
X577485Y179960D01*
Y179440D01*
X577408Y178920D01*
X577255Y178465D01*
X577025Y178075D01*
X576757Y177815D01*
X576450Y177750D01*
G01X581850Y181650D02*
Y177750D01*
G01X580968Y181650D02*
X582732D01*
G01X586292Y177750D02*
X587250Y181650D01*
X588208Y177750D01*
G01X587863Y179115D02*
X586637D01*
G01X591883Y181650D02*
Y177750D01*
X593417D01*
G01X602645D02*
Y181650D01*
G01X604255D02*
Y177750D01*
G01Y179700D02*
X602645D01*
G01X608850Y177750D02*
X608543Y177815D01*
X608275Y178075D01*
X608045Y178465D01*
X607892Y178920D01*
X607815Y179440D01*
Y179960D01*
X607892Y180480D01*
X608045Y180935D01*
X608275Y181325D01*
X608543Y181585D01*
X608850Y181650D01*
X609157Y181585D01*
X609425Y181325D01*
X609655Y180935D01*
X609808Y180480D01*
X609885Y179960D01*
Y179440D01*
X609808Y178920D01*
X609655Y178465D01*
X609425Y178075D01*
X609157Y177815D01*
X608850Y177750D01*
G01X613483Y181650D02*
Y177750D01*
X615017D01*
G01X620417D02*
X618883D01*
Y181650D01*
X620417D01*
G01X619803Y179765D02*
X618883D01*
G01X624245Y178270D02*
X624552Y177945D01*
X624897Y177750D01*
X625203D01*
X625510Y177945D01*
X625740Y178270D01*
X625855Y178725D01*
X625778Y179180D01*
X625587Y179570D01*
X625242Y179830D01*
X624782Y179960D01*
X624513Y180220D01*
X624398Y180675D01*
X624475Y181130D01*
X624667Y181455D01*
X624935Y181650D01*
X625203D01*
X625472Y181520D01*
X625702Y181195D01*
G01X630450Y177620D02*
X630373Y177685D01*
Y177815D01*
X630450Y177880D01*
X630527Y177815D01*
Y177685D01*
X630450Y177620D01*
G01Y179375D02*
X630373Y179440D01*
Y179570D01*
X630450Y179635D01*
X630527Y179570D01*
Y179440D01*
X630450Y179375D01*
G01X592683Y193350D02*
Y197250D01*
X593603D01*
X593910Y197055D01*
X594140Y196600D01*
X594217Y196080D01*
X594140Y195560D01*
X593948Y195170D01*
X593603Y194975D01*
X592683D01*
G01X598083Y197250D02*
Y193350D01*
X599617D01*
G01X603292D02*
X604250Y197250D01*
X605208Y193350D01*
G01X604863Y194715D02*
X603637D01*
G01X609650Y197250D02*
Y193350D01*
G01X608768Y197250D02*
X610532D01*
G01X615817Y193350D02*
X614283D01*
Y197250D01*
X615817D01*
G01X615203Y195365D02*
X614283D01*
G01X619607Y193350D02*
Y197250D01*
X620373D01*
X620680Y197055D01*
X620910Y196795D01*
X621102Y196405D01*
X621255Y195950D01*
X621293Y195300D01*
X621255Y194650D01*
X621102Y194195D01*
X620910Y193805D01*
X620680Y193545D01*
X620373Y193350D01*
X619607D01*
G01X592683Y185550D02*
Y189450D01*
X593603D01*
X593910Y189255D01*
X594140Y188800D01*
X594217Y188280D01*
X594140Y187760D01*
X593948Y187370D01*
X593603Y187175D01*
X592683D01*
G01X598083Y189450D02*
Y185550D01*
X599617D01*
G01X603292D02*
X604250Y189450D01*
X605208Y185550D01*
G01X604863Y186915D02*
X603637D01*
G01X609650Y189450D02*
Y185550D01*
G01X608768Y189450D02*
X610532D01*
G01X615817Y185550D02*
X614283D01*
Y189450D01*
X615817D01*
G01X615203Y187565D02*
X614283D01*
G01X619607Y185550D02*
Y189450D01*
X620373D01*
X620680Y189255D01*
X620910Y188995D01*
X621102Y188605D01*
X621255Y188150D01*
X621293Y187500D01*
X621255Y186850D01*
X621102Y186395D01*
X620910Y186005D01*
X620680Y185745D01*
X620373Y185550D01*
X619607D01*
G01X651010Y177750D02*
Y181650D01*
X649592Y178855D01*
X651508D01*
G01X655222Y181000D02*
X655452Y181390D01*
X655720Y181585D01*
X656027Y181650D01*
X656410Y181520D01*
X656678Y181195D01*
X656755Y180805D01*
X656717Y180415D01*
X656563Y180090D01*
X655797Y179440D01*
X655452Y178985D01*
X655222Y178335D01*
X655145Y177750D01*
X656755D01*
G01X647850Y193350D02*
X647543Y193415D01*
X647275Y193675D01*
X647045Y194065D01*
X646892Y194520D01*
X646815Y195040D01*
Y195560D01*
X646892Y196080D01*
X647045Y196535D01*
X647275Y196925D01*
X647543Y197185D01*
X647850Y197250D01*
X648157Y197185D01*
X648425Y196925D01*
X648655Y196535D01*
X648808Y196080D01*
X648885Y195560D01*
Y195040D01*
X648808Y194520D01*
X648655Y194065D01*
X648425Y193675D01*
X648157Y193415D01*
X647850Y193350D01*
G01X648157Y194390D02*
X648617Y193350D01*
G01X653250Y197250D02*
Y193350D01*
G01X652368Y197250D02*
X654132D01*
G01X658650Y193350D02*
Y195105D01*
X657883Y197250D01*
G01X659417D02*
X658650Y195105D01*
G01X651010Y185550D02*
Y189450D01*
X649592Y186655D01*
X651508D01*
G01X655222Y188800D02*
X655452Y189190D01*
X655720Y189385D01*
X656027Y189450D01*
X656410Y189320D01*
X656678Y188995D01*
X656755Y188605D01*
X656717Y188215D01*
X656563Y187890D01*
X655797Y187240D01*
X655452Y186785D01*
X655222Y186135D01*
X655145Y185550D01*
X656755D01*
M02*
