G04 ================== begin FILE IDENTIFICATION RECORD ==================*
G04 Layout Name:  AMPLFICATOR AUDIO PUTERE.brd*
G04 Film Name:    SMTOP*
G04 File Format:  Gerber RS274X*
G04 File Origin:  Cadence Allegro 17.2-S012*
G04 Origin Date:  Wed Nov 14 14:45:57 2018*
G04 *
G04 Layer:  VIA CLASS/SOLDERMASK_TOP*
G04 Layer:  PIN/SOLDERMASK_TOP*
G04 Layer:  PACKAGE GEOMETRY/SOLDERMASK_TOP*
G04 Layer:  BOARD GEOMETRY/SOLDERMASK_TOP*
G04 *
G04 Offset:    (0.00 0.00)*
G04 Mirror:    No*
G04 Mode:      Positive*
G04 Rotation:  0*
G04 FullContactRelief:  No*
G04 UndefLineWidth:     10.00*
G04 ================== end FILE IDENTIFICATION RECORD ====================*
%FSLAX25Y25*MOIN*%
%IR0*IPPOS*OFA0.00000B0.00000*MIA0B0*SFA1.00000B1.00000*%
%ADD21R,.11X.07*%
%ADD12R,.07X.11*%
%ADD14C,.05*%
%ADD11C,.044*%
%ADD24R,.12598X.07087*%
%ADD19R,.08874X.08874*%
%ADD22R,.027X.03*%
%ADD15R,.03X.027*%
%ADD20R,.06X.046*%
%ADD25R,.12811X.12811*%
%ADD18R,.04528X.04724*%
%ADD23R,.25409X.23835*%
%ADD16R,.0474X.06709*%
%ADD10R,.04724X.04528*%
%ADD13R,.06709X.0474*%
%ADD17R,.05906X.08661*%
%LPD*%
G75*
G54D10*
X11457Y31000D03*
X18543D03*
X101543Y102000D03*
X94457D03*
G54D20*
X20900Y116100D03*
X29000Y112000D03*
Y120200D03*
G54D11*
X11000Y49000D03*
X32000Y54350D03*
X14000Y54000D03*
X35000Y62150D03*
X40000Y63000D03*
X35000Y102533D03*
X40000Y120000D03*
X35000Y109000D03*
X29000Y106000D03*
X33000Y148000D03*
X62000Y36000D03*
X69078Y40000D03*
X47292Y44000D03*
X67000Y63000D03*
X66000Y84000D03*
X51000Y100000D03*
X67000Y141000D03*
Y152000D03*
X51000Y138000D03*
X59000Y135000D03*
X44000Y148000D03*
X95000Y53000D03*
X75000Y73000D03*
X97000Y77000D03*
X84000Y84000D03*
X94900Y111900D03*
X83000Y97000D03*
X86376Y116624D03*
X76000Y135000D03*
X82000Y123000D03*
X101000Y133000D03*
Y127000D03*
X94642Y137394D03*
X104000Y52000D03*
X115000Y81000D03*
X102600Y112219D03*
X115000Y98000D03*
X108000Y144000D03*
X145000Y92000D03*
X139000Y106000D03*
X145000Y146000D03*
X150000Y153000D03*
G54D12*
X28500Y16000D03*
X41500D03*
X130500Y146000D03*
X117500D03*
G54D21*
X59000Y24500D03*
Y11500D03*
G54D13*
X34000Y29063D03*
Y36937D03*
X16000Y93063D03*
Y100937D03*
X18000Y147937D03*
Y140063D03*
X65000Y76937D03*
Y69063D03*
X59000Y149937D03*
Y142063D03*
X69000Y133937D03*
Y126063D03*
X94000Y62063D03*
X77000Y40937D03*
Y33063D03*
X94000Y86063D03*
Y69937D03*
Y93937D03*
X108000Y62063D03*
Y86063D03*
Y69937D03*
Y93937D03*
X150000Y78063D03*
Y85937D03*
G54D22*
X56800Y73500D03*
X49300D03*
X53000Y80500D03*
X99200Y47500D03*
X98800Y115500D03*
X91300D03*
X95000Y122500D03*
X87800Y140500D03*
X80300D03*
X84000Y147500D03*
X106700Y47500D03*
X103000Y40500D03*
G54D23*
X140307Y20024D03*
X141307Y123024D03*
G54D14*
X20000Y20000D03*
X140000Y140000D03*
G54D15*
X35500Y51000D03*
X24500Y53800D03*
Y46300D03*
X17500Y50000D03*
X38500Y139000D03*
X42500Y54800D03*
Y47300D03*
X48500Y103800D03*
Y96300D03*
X41500Y100000D03*
X45500Y142800D03*
Y135300D03*
G54D24*
X112000Y11008D03*
Y29000D03*
X113000Y114008D03*
Y132000D03*
G54D16*
X42063Y37000D03*
X49937D03*
X60937Y49000D03*
X53063D03*
X46063Y64000D03*
X53937D03*
X54937Y125000D03*
X47063D03*
X75063Y54000D03*
X82937D03*
Y65000D03*
X75063D03*
X89937Y131000D03*
X82063D03*
X128063Y55000D03*
Y42000D03*
Y68000D03*
X132063Y82000D03*
X126063Y92000D03*
X117937Y105000D03*
X110063D03*
X125063D03*
X135937Y55000D03*
Y42000D03*
Y68000D03*
X139937Y82000D03*
X133937Y92000D03*
X132937Y105000D03*
G54D25*
X148000Y102000D03*
G54D17*
X13945Y63000D03*
X23000D03*
X69055Y114000D03*
X60000D03*
G54D18*
X39000Y80543D03*
Y73457D03*
X78000Y89543D03*
Y82457D03*
X86000Y110543D03*
Y103457D03*
G54D19*
X18472Y78748D03*
X64528Y98252D03*
M02*
